<svg width="50" height="72" viewBox="0 0 50 72" fill="none" xmlns="http://www.w3.org/2000/svg">
<path fill-rule="evenodd" clip-rule="evenodd" d="M0.605598 1.18061C0.231055 1.555 0.229675 1.56802 0.229675 4.67569V7.795L0.624739 8.16632L1.0198 8.5375L9.95342 8.5793L18.8869 8.62126L19.2781 9.65118C19.4934 10.2177 20.1468 11.956 20.7302 13.5141L21.7909 16.3469L16.5859 16.4234L11.381 16.5L11.0115 16.9297L10.6422 17.3593V21.5718C10.6422 26.7242 10.6742 26.8217 12.3696 26.831C12.9395 26.8343 13.2767 26.9041 13.3159 27.0273C13.3496 27.1327 13.9386 36.897 14.6251 48.7262C15.9084 70.8389 15.9141 70.9052 16.5444 71.1471C16.8682 71.2714 43.6161 71.2714 43.94 71.1471C44.5702 70.9052 44.5759 70.8389 45.8592 48.7262C46.5457 36.897 47.1348 27.1327 47.1685 27.0273C47.2077 26.9041 47.5448 26.8343 48.1148 26.831C49.8111 26.8217 49.8422 26.7266 49.8422 21.5514V17.3186L49.3946 16.871L48.947 16.4234L40.0157 16.4199L31.0844 16.4162L28.5661 10.3332C25.1537 2.09032 24.771 1.21751 24.471 0.996094C24.2689 0.84695 21.6483 0.804688 12.5965 0.804688H0.981365L0.605598 1.18061ZM22.9377 3.59922C22.9808 3.70457 24.1656 6.54688 25.5705 9.91563C26.9754 13.2844 28.1607 16.1268 28.2045 16.232C28.2658 16.3789 27.8576 16.4234 26.4487 16.4234H24.613L22.7963 11.5617C21.7139 8.6649 20.8429 6.56081 20.6412 6.35547L20.303 6.01094H11.5678H2.8328V4.70938V3.40781H12.8461C20.7129 3.40781 22.8763 3.44885 22.9377 3.59922ZM47.2391 21.6297V24.2328H30.2422H13.2453V21.6297V19.0266H30.2422H47.2391V21.6297ZM44.4843 27.3336C44.4868 28.1709 44.0141 36.3735 43.9328 36.9039L43.8564 37.4016H30.2422H16.628L16.5516 36.9039C16.4703 36.3735 15.9976 28.1709 16 27.3336L16.0016 26.8359H30.2422H44.4828L44.4843 27.3336ZM22.5167 40.7945C20.3264 43.2307 19.368 46.7691 20.0405 49.9373C20.3577 51.4312 21.2926 53.3158 22.3484 54.5898L23.2052 55.6234H20.4524H17.6999L17.6233 55.1258C17.5489 54.6424 16.758 41.0395 16.7641 40.3492L16.7672 40.0047H19.997H23.2268L22.5167 40.7945ZM32.2751 40.2319C34.8837 40.9113 37.1123 43.2006 37.8235 45.9311C38.7207 49.3758 36.974 53.1344 33.7311 54.7368C31.33 55.9233 29.1544 55.9233 26.7532 54.7368C23.5705 53.1642 21.8606 49.6033 22.6052 46.0989C23.1647 43.4658 25.5547 40.9369 28.1427 40.2397C29.2029 39.9542 31.1943 39.9503 32.2751 40.2319ZM43.7202 40.3492C43.7264 41.0395 42.9355 54.6424 42.8611 55.1258L42.7845 55.6234H40.0319H37.2792L38.1344 54.5898C39.9295 52.4201 40.7415 50.0218 40.6097 47.2781C40.4888 44.7638 39.6212 42.6337 37.9696 40.7966L37.2576 40.0047H40.4873H43.7172L43.7202 40.3492ZM42.6481 58.4945C42.6545 59.1404 42.1648 67.6926 42.0956 68.1414L42.0189 68.6391H30.2422H18.4655L18.3888 68.1414C18.3196 67.6926 17.8299 59.1404 17.8363 58.4945C17.8389 58.2416 18.5329 58.2266 30.2422 58.2266C41.9515 58.2266 42.6455 58.2416 42.6481 58.4945ZM26.9903 63.6725C26.2621 64.0675 26.1707 65.1129 26.8139 65.6914C27.1366 65.9819 27.3711 66.0359 28.3077 66.0359C29.2123 66.0359 29.4808 65.9782 29.752 65.7254C30.4498 65.0754 30.3134 64.0545 29.472 63.6287C28.9573 63.3683 27.5035 63.3939 26.9903 63.6725ZM33.6109 63.631C32.8012 64.0406 32.6622 65.0982 33.3354 65.7254C33.6417 66.0108 33.8691 66.0359 36.1396 66.0359C38.5082 66.0359 38.6235 66.0217 38.9208 65.6914C39.3618 65.2016 39.4401 64.8863 39.2534 64.3513C38.9836 63.5771 38.487 63.4325 36.1069 63.4351C34.7114 63.4365 33.8637 63.5031 33.6109 63.631Z" fill="#CE3246"/>
</svg>
