<svg width="80" height="79" viewBox="0 0 80 79" fill="none" xmlns="http://www.w3.org/2000/svg">
<g clip-path="url(#clip0_3307_516)">
<path d="M79.1933 34.4532C79.0504 31.5508 77.7867 28.7345 75.4081 26.0536C71.961 22.1683 66.0914 18.5489 57.9623 15.296C50.8095 12.4332 43.145 10.9202 35.7979 10.9202C27.7288 10.9202 20.2564 12.7429 14.1847 16.1916C13.7237 16.4283 10.317 18.2517 7.0528 21.98C4.09734 25.3558 0.738882 30.9536 0.812013 38.8955C0.802454 38.9675 0.797787 50.5962 0.801121 50.6377C1.34905 57.9104 4.98447 63.4721 11.0377 66.2989C13.8944 67.6328 17.1978 68.2801 20.562 68.2801C25.7185 68.2798 31.017 66.759 35.0635 63.8591C45.7034 56.2339 53.5884 53.9386 61.429 56.183C66.5748 57.6567 70.7993 57.3818 73.9846 55.3655C76.7494 53.6154 78.5485 50.6404 79.1876 46.7623C79.2025 46.6725 79.2033 34.5261 79.1933 34.4532ZM75.7666 36.3501C75.2005 39.7973 73.276 43.9062 67.3226 43.9062C65.8109 43.9062 64.1086 43.6372 62.2626 43.1071C61.2498 42.8163 60.2273 42.5949 59.2013 42.438L72.3924 27.7065C75.0982 30.5146 76.2486 33.4178 75.7666 36.3501ZM69.904 25.4876L54.965 42.171C48.9708 42.3335 42.8207 44.693 35.3682 49.7117L61.5064 20.4765C64.8966 22.0916 67.6989 23.7676 69.904 25.4876ZM56.7233 18.3913C57.2654 18.6082 57.7922 18.827 58.3122 19.0466L26.8597 54.2254C24.8532 54.792 22.7266 55.097 20.5942 55.097C18.3436 55.097 16.0201 54.7391 13.8531 53.9411L48.3799 15.7577C51.2036 16.4234 54.0021 17.3023 56.7233 18.3913ZM35.7979 14.2544C38.6889 14.2544 41.6337 14.5071 44.5754 14.9942L10.7509 52.4007C8.19756 50.7496 6.11277 48.2662 5.00825 44.7566L32.198 14.3907C33.381 14.3031 34.5807 14.2544 35.7979 14.2544ZM9.47723 24.2727C12.5192 20.8379 15.6891 19.1666 15.7178 19.1524C15.7456 19.1384 20.8848 16.0015 27.1307 15.0517L4.22538 40.6331C4.22226 40.5937 3.69479 30.8017 9.47723 24.2727ZM72.2015 52.5483C69.8546 54.0338 66.539 54.1778 62.3468 52.9777C57.6573 51.6347 52.9567 51.7203 47.9758 53.2371C43.5117 54.597 38.6529 57.1851 33.1212 61.149C27.3534 65.2828 18.659 66.1782 12.4485 63.2776C9.002 61.6685 4.78108 58.1584 4.14291 50.5804C5.10272 51.9837 6.25792 53.2293 7.60829 54.2898C11.0096 56.9606 15.6213 58.4314 20.5942 58.4314C25.8588 58.4314 31.1317 56.8116 35.0612 53.9873C43.2317 48.1148 49.576 45.4961 55.6328 45.4961C57.5622 45.4961 59.4298 45.7631 61.3423 46.3124C63.4873 46.9281 65.4997 47.2406 67.3226 47.2408C67.323 47.2408 67.3226 47.2408 67.3228 47.2408C70.8987 47.2408 73.8139 46.0538 75.8758 43.8519V46.3513C75.5237 48.3678 74.5981 51.0314 72.2015 52.5483Z" fill="#CE3246"/>
</g>
<defs>
<clipPath id="clip0_3307_516">
<rect width="78.4" height="78.4" fill="white" transform="translate(0.800049 0.400024)"/>
</clipPath>
</defs>
</svg>
