<svg width="80" height="79" viewBox="0 0 80 79" fill="none" xmlns="http://www.w3.org/2000/svg">
<g clip-path="url(#clip0_3307_469)">
<path d="M79.1931 34.4532C79.0502 31.5508 77.7865 28.7345 75.4079 26.0536C71.9607 22.1683 66.0911 18.5489 57.9621 15.296C50.8092 12.4332 43.1447 10.9202 35.7976 10.9202C27.7286 10.9202 20.2561 12.7429 14.1845 16.1916C13.7235 16.4283 10.3168 18.2517 7.05256 21.98C4.0971 25.3558 0.738638 30.9536 0.811768 38.8955C0.80221 38.9675 0.797542 50.5962 0.800877 50.6377C1.3488 57.9104 4.98423 63.4721 11.0374 66.2989C13.8942 67.6328 17.1975 68.2801 20.5618 68.2801C25.7183 68.2798 31.0168 66.759 35.0632 63.8591C45.7032 56.2339 53.5882 53.9386 61.4288 56.183C66.5746 57.6567 70.7991 57.3818 73.9844 55.3655C76.7491 53.6154 78.5483 50.6404 79.1873 46.7623C79.2022 46.6725 79.2031 34.5261 79.1931 34.4532ZM75.7664 36.3501C75.2002 39.7973 73.2757 43.9062 67.3223 43.9062C65.8106 43.9062 64.1084 43.6372 62.2623 43.1071C61.2496 42.8163 60.2271 42.5949 59.201 42.438L72.3922 27.7065C75.098 30.5146 76.2483 33.4178 75.7664 36.3501ZM69.9037 25.4876L54.9648 42.171C48.9705 42.3335 42.8204 44.693 35.368 49.7117L61.5061 20.4765C64.8964 22.0916 67.6987 23.7676 69.9037 25.4876ZM56.7231 18.3913C57.2652 18.6082 57.792 18.827 58.3119 19.0466L26.8595 54.2254C24.8529 54.792 22.7263 55.097 20.594 55.097C18.3434 55.097 16.0199 54.7391 13.8528 53.9411L48.3797 15.7577C51.2033 16.4234 54.0019 17.3023 56.7231 18.3913ZM35.7976 14.2544C38.6886 14.2544 41.6334 14.5071 44.5751 14.9942L10.7507 52.4007C8.19731 50.7496 6.11253 48.2662 5.00801 44.7566L32.1978 14.3907C33.3808 14.3031 34.5804 14.2544 35.7976 14.2544ZM9.47699 24.2727C12.5189 20.8379 15.6889 19.1666 15.7176 19.1524C15.7453 19.1384 20.8845 16.0015 27.1304 15.0517L4.22513 40.6331C4.22202 40.5937 3.69454 30.8017 9.47699 24.2727ZM72.2012 52.5483C69.8544 54.0338 66.5388 54.1778 62.3466 52.9777C57.6571 51.6347 52.9565 51.7203 47.9756 53.2371C43.5115 54.597 38.6526 57.1851 33.1209 61.149C27.3531 65.2828 18.6588 66.1782 12.4482 63.2776C9.00175 61.6685 4.78084 58.1584 4.14267 50.5804C5.10248 51.9837 6.25768 53.2293 7.60804 54.2898C11.0094 56.9606 15.6211 58.4314 20.594 58.4314C25.8585 58.4314 31.1315 56.8116 35.061 53.9873C43.2314 48.1148 49.5758 45.4961 55.6325 45.4961C57.5619 45.4961 59.4296 45.7631 61.3421 46.3124C63.4871 46.9281 65.4994 47.2406 67.3223 47.2408C67.3228 47.2408 67.3223 47.2408 67.3226 47.2408C70.8984 47.2408 73.8137 46.0538 75.8755 43.8519V46.3513C75.5234 48.3678 74.5979 51.0314 72.2012 52.5483Z" fill="#CE3246"/>
</g>
<defs>
<clipPath id="clip0_3307_469">
<rect width="78.4" height="78.4" fill="white" transform="translate(0.799805 0.400024)"/>
</clipPath>
</defs>
</svg>
