<svg width="76" height="63" viewBox="0 0 76 63" fill="none" xmlns="http://www.w3.org/2000/svg">
<path d="M35.5167 18.5335C38.2313 18.5408 40.836 17.4619 42.7504 15.5373C44.176 14.1045 46.1154 13.3014 48.1365 13.3068H75.0999C75.4865 13.3068 75.7999 12.9934 75.7999 12.6068V6.16681C75.7999 5.78021 75.4865 5.46681 75.1 5.46681H48.1365C46.1154 5.4722 44.176 4.66909 42.7504 3.23633C40.836 1.31178 38.2313 0.232961 35.5167 0.240148H11.1666C10.78 0.240148 10.4666 0.553549 10.4666 0.940148V2.15348C10.4666 2.54008 10.78 2.85348 11.1666 2.85348H28.0599C28.4465 2.85348 28.76 3.16688 28.76 3.55348V4.76681C28.76 5.15341 28.4466 5.46681 28.0599 5.46681H11.1666C10.78 5.46681 10.4666 5.78021 10.4666 6.16681V7.38015C10.4666 7.76675 10.78 8.08015 11.1666 8.08015H12.38C12.7666 8.08015 13.08 8.39355 13.08 8.78015V9.99348C13.08 10.3801 12.7666 10.6935 12.38 10.6935H11.1666C10.78 10.6935 10.4666 11.0069 10.4666 11.3935V12.6068C10.4666 12.9934 10.78 13.3068 11.1666 13.3068H12.38C12.7666 13.3068 13.08 13.6202 13.08 14.0068V15.2201C13.08 15.6067 12.7666 15.9201 12.38 15.9201H11.1666C10.78 15.9201 10.4666 16.2335 10.4666 16.6201V17.8335C10.4666 18.2201 10.78 18.5335 11.1666 18.5335H12.38C12.7666 18.5335 13.08 18.8469 13.08 19.2335V46.5801C13.08 46.9667 12.7666 47.2801 12.38 47.2801H0.899951C0.513352 47.2801 0.199951 47.5935 0.199951 47.9801V48.5868C0.208608 56.5214 6.63871 62.9515 14.5733 62.9601H61.4266C69.3612 62.9515 75.7913 56.5214 75.7999 48.5868V47.9801C75.7999 47.5935 75.4865 47.2801 75.1 47.2801H73.9516C73.4641 47.2801 73.1234 46.788 73.1694 46.3027C73.1798 46.1934 73.1856 46.0836 73.1866 45.9735C73.1802 44.4758 72.3251 43.1384 71.0252 42.4865C70.649 42.2978 70.4318 41.8598 70.5091 41.4461C70.8428 39.6605 69.8892 37.8267 68.1411 37.1151C67.6687 36.9229 67.1632 36.8249 66.6533 36.8268H64.8049C64.3175 36.8268 63.9767 36.3347 64.0228 35.8494C64.0332 35.7401 64.0389 35.6303 64.0399 35.5201C64.0399 33.3552 62.2849 31.6001 60.1199 31.6001H56.8337C54.4062 31.5933 52.0769 32.5583 50.3657 34.2801L48.024 36.6218C47.8927 36.7531 47.7147 36.8268 47.529 36.8268H40.52C38.363 36.8185 36.6076 38.5603 36.5991 40.7172C36.5982 40.9622 36.6203 41.2062 36.6648 41.4459C36.7417 41.8597 36.5242 42.2979 36.148 42.4866C34.8481 43.1385 33.993 44.4758 33.9866 45.9735C33.9877 46.0836 33.9934 46.1934 34.0038 46.3027C34.0499 46.788 33.7091 47.2801 33.2216 47.2801H32.0733C31.6867 47.2801 31.3733 46.9667 31.3733 46.5801V19.2335C31.3733 18.8469 31.6867 18.5335 32.0733 18.5335H35.5167ZM31.3733 3.55348C31.3733 3.16688 31.6867 2.85348 32.0733 2.85348H35.5167C37.5378 2.84809 39.4772 3.6512 40.9028 5.08396C42.8172 7.00852 45.4219 8.0875 48.1365 8.08015H72.4866C72.8732 8.08015 73.1866 8.39355 73.1866 8.78015V9.99348C73.1866 10.3801 72.8732 10.6935 72.4866 10.6935H48.1365C45.4219 10.6861 42.8172 11.7651 40.9028 13.6897C39.4772 15.1224 37.5378 15.9255 35.5167 15.9201H32.0733C31.6867 15.9201 31.3733 15.6067 31.3733 15.2201V3.55348ZM26.1466 8.78015C26.1466 8.39355 26.46 8.08015 26.8466 8.08015H28.0599C28.4466 8.08015 28.76 8.39355 28.76 8.78015V46.5801C28.76 46.9667 28.4466 47.2801 28.0599 47.2801H26.8466C26.46 47.2801 26.1466 46.9667 26.1466 46.5801V8.78015ZM20.92 8.78015C20.92 8.39355 21.2334 8.08015 21.6199 8.08015H22.8333C23.2199 8.08015 23.5333 8.39355 23.5333 8.78015V46.5801C23.5333 46.9667 23.2199 47.2801 22.8333 47.2801H21.6199C21.2334 47.2801 20.92 46.9667 20.92 46.5801V8.78015ZM15.6933 8.78015C15.6933 8.39355 16.0067 8.08015 16.3933 8.08015H17.6066C17.9932 8.08015 18.3066 8.39355 18.3066 8.78015V46.5801C18.3066 46.9667 17.9932 47.2801 17.6066 47.2801H16.3933C16.0067 47.2801 15.6933 46.9667 15.6933 46.5801V8.78015ZM69.2666 44.6668C69.9882 44.6668 70.5733 45.2519 70.5733 45.9735C70.5733 46.6951 69.9882 47.2801 69.2666 47.2801H51.6733C51.2867 47.2801 50.9733 46.9667 50.9733 46.5801V45.7487C50.9746 45.4025 51.1121 45.0706 51.3561 44.8249C51.4574 44.7237 51.5947 44.6668 51.7378 44.6668H69.2666ZM66.6533 39.4401C67.3749 39.4401 67.96 40.0252 67.96 40.7468C67.96 41.4684 67.3749 42.0535 66.6533 42.0535H55.8175C55.1939 42.0535 54.8816 41.2995 55.3225 40.8585L56.3581 39.823C56.6034 39.5777 56.9363 39.4398 57.2832 39.4401H66.6533ZM45.7466 45.3005C45.7499 44.755 45.8214 44.2119 45.9596 43.6842C46.2474 42.551 46.8341 41.5159 47.6583 40.6867L51.5155 36.8268L52.2146 36.1277C53.4367 34.8982 55.1001 34.2087 56.8337 34.2135H60.1199C60.8416 34.2135 61.4266 34.7985 61.4266 35.5201C61.4266 36.2418 60.8416 36.8268 60.1199 36.8268H57.2832C56.2426 36.824 55.2443 37.2376 54.5104 37.9754L50.0495 42.4363L49.5085 42.9773C48.7709 43.7107 48.3573 44.7086 48.36 45.7487V53.8135C48.36 54.5351 47.7749 55.1201 47.0533 55.1201C46.3317 55.1201 45.7466 54.5351 45.7466 53.8135V45.3005ZM40.5173 39.4349C40.5188 39.4349 40.52 39.4361 40.52 39.4375C40.52 39.439 40.5211 39.4401 40.5226 39.4401H45.0871C45.1545 39.4401 45.2028 39.5279 45.1599 39.58C44.927 39.8713 44.7122 40.1768 44.517 40.4946C44.4713 40.5704 44.4164 40.6384 44.372 40.7155C44.1422 41.1171 43.9429 41.5355 43.7762 41.9672C43.757 42.0174 43.7025 42.0482 43.6488 42.0482H40.52C39.7983 42.0482 39.2133 41.4632 39.2133 40.7416C39.2133 40.0209 39.7969 39.4363 40.5173 39.4349ZM37.9066 44.6668H42.5225C42.865 44.6668 43.1333 44.958 43.1333 45.3005V46.5801C43.1333 46.9667 42.8199 47.2801 42.4333 47.2801H37.9066C37.185 47.2801 36.5999 46.6951 36.5999 45.9735C36.5999 45.2519 37.185 44.6668 37.9066 44.6668ZM37.9066 49.8935H42.4333C42.8199 49.8935 43.1333 50.2069 43.1333 50.5935V53.8135C43.1333 55.9785 44.8883 57.7335 47.0533 57.7335C49.2183 57.7335 50.9733 55.9785 50.9733 53.8135V50.5935C50.9733 50.2069 51.2867 49.8935 51.6733 49.8935H72.3311C72.7489 49.8935 73.0752 50.2582 73.001 50.6693C71.9978 56.229 67.1501 60.3399 61.4266 60.3468H14.5733C8.8498 60.3399 4.00205 56.229 2.99886 50.6693C2.92468 50.2582 3.25104 49.8935 3.6688 49.8935H37.9066Z" fill="#CE3246"/>
</svg>
