<svg width="80" height="71" viewBox="0 0 80 71" fill="none" xmlns="http://www.w3.org/2000/svg">
<path fill-rule="evenodd" clip-rule="evenodd" d="M29.9635 0.775946C29.5889 1.15034 29.5875 1.16335 29.5875 4.27102V7.39033L29.9826 7.76166L30.3777 8.13284L39.3113 8.17464L48.2448 8.2166L48.636 9.24652C48.8513 9.81308 49.5047 11.5514 50.0881 13.1094L51.1488 15.9422L45.9438 16.0188L40.7389 16.0953L40.3694 16.525L40 16.9547V21.1671C40 26.3195 40.0321 26.417 41.7275 26.4264C42.2974 26.4296 42.6346 26.4994 42.6738 26.6227C42.7075 26.728 43.2965 36.4924 43.983 48.3216C45.2663 70.4342 45.272 70.5005 45.9023 70.7424C46.2261 70.8668 72.974 70.8668 73.2978 70.7424C73.9281 70.5005 73.9338 70.4342 75.2171 48.3216C75.9036 36.4924 76.4926 26.728 76.5263 26.6227C76.5655 26.4994 76.9027 26.4296 77.4726 26.4264C79.169 26.417 79.2001 26.3219 79.2001 21.1468V16.9139L78.7525 16.4664L78.3049 16.0188L69.3736 16.0153L60.4422 16.0116L57.9239 9.92853C54.5116 1.68566 54.1289 0.812849 53.8289 0.591431C53.6268 0.442287 51.0062 0.400024 41.9544 0.400024H30.3392L29.9635 0.775946ZM52.2955 3.19456C52.3387 3.29991 53.5234 6.14221 54.9284 9.51096C56.3333 12.8797 57.5186 15.7222 57.5624 15.8274C57.6237 15.9742 57.2154 16.0188 55.8065 16.0188H53.9709L52.1542 11.1571C51.0718 8.26024 50.2008 6.15615 49.9991 5.95081L49.6609 5.60627H40.9257H32.1907V4.30471V3.00315H42.204C50.0708 3.00315 52.2341 3.04419 52.2955 3.19456ZM76.5969 21.225V23.8281H59.6001H42.6032V21.225V18.6219H59.6001H76.5969V21.225ZM73.8422 26.9289C73.8447 27.7662 73.372 35.9688 73.2906 36.4992L73.2142 36.9969H59.6001H45.9859L45.9095 36.4992C45.8281 35.9688 45.3554 27.7662 45.3579 26.9289L45.3594 26.4313H59.6001H73.8407L73.8422 26.9289ZM12.7438 37.0989C10.2921 37.4844 7.48993 38.7249 5.75625 40.1917C3.25495 42.3082 1.44716 45.6887 0.96573 49.1495C0.625946 51.5929 0.874008 52.8242 1.93777 53.9743C2.56635 54.654 2.58487 54.7015 2.3924 55.1422C2.13515 55.7317 2.13407 57.305 2.39041 57.8985C2.58043 58.3381 2.56037 58.3898 1.92567 59.1C0.928827 60.2155 0.800049 60.8325 0.800049 64.4914C0.800049 67.8998 0.896671 68.4214 1.72018 69.4612C1.97574 69.7839 2.54139 70.2255 2.97718 70.4426L3.7696 70.8375H21.7016H39.6336L40.4296 70.4409C41.3806 69.967 42.0539 69.1968 42.3828 68.2062C42.5805 67.6109 42.6154 66.8609 42.5755 64.067C42.5209 60.258 42.4586 60.0004 41.3295 58.9161C40.8072 58.4143 40.7997 58.3905 41.0099 57.8874C41.2863 57.2259 41.2863 55.8147 41.0099 55.1532C40.7997 54.6502 40.8072 54.6263 41.3295 54.1245C42.3475 53.1471 42.5291 52.6069 42.5069 50.625C42.4448 45.1254 39.0883 39.8727 34.3848 37.9146C32.2155 37.0114 32.0647 37.0004 22.161 37.0205C17.1921 37.0304 12.9543 37.0657 12.7438 37.0989ZM32.7015 40.0202C34.2378 40.6013 35.2889 41.2936 36.4915 42.5163C38.4059 44.463 39.6767 47.363 39.9246 50.3512L40.0353 51.6853L39.5701 52.1505L39.1049 52.6157H21.7016H4.29834L3.8333 52.1506C3.3727 51.69 3.36933 51.6742 3.47208 50.5045C3.63164 48.6883 3.97111 47.4786 4.81131 45.7338C5.48108 44.3426 5.75318 43.9636 6.90392 42.8199C8.59243 41.1418 10.2989 40.2265 12.6022 39.7631C12.9749 39.6882 17.4486 39.6394 22.5438 39.6545C31.6919 39.6819 31.819 39.6865 32.7015 40.0202ZM51.8746 40.3898C49.6843 42.8261 48.7259 46.3645 49.3984 49.5326C49.7155 51.0265 50.6505 52.9112 51.7063 54.1852L52.563 55.2188H49.8103H47.0577L46.9812 54.7211C46.9068 54.2377 46.1159 40.6348 46.122 39.9446L46.125 39.6H49.3549H52.5846L51.8746 40.3898ZM61.6329 39.8273C64.2416 40.5067 66.4702 42.7959 67.1814 45.5264C68.0786 48.9711 66.3319 52.7297 63.089 54.3322C60.6879 55.5186 58.5122 55.5186 56.1111 54.3322C52.9284 52.7596 51.2184 49.1987 51.9631 45.6942C52.5226 43.0611 54.9126 40.5322 57.5006 39.8351C58.5608 39.5495 60.5522 39.5457 61.6329 39.8273ZM73.0781 39.9446C73.0842 40.6348 72.2934 54.2377 72.2189 54.7211L72.1424 55.2188H69.3898H66.6371L67.4923 54.1852C69.2873 52.0154 70.0994 49.6172 69.9675 46.8735C69.8467 44.3591 68.9791 42.229 67.3275 40.392L66.6155 39.6H69.8452H73.0751L73.0781 39.9446ZM14.3245 42.5477C13.8642 43.0591 13.7952 43.3888 14.0304 43.952C14.2769 44.5417 14.8736 44.8075 15.944 44.804C16.8203 44.8012 17.3535 44.5411 17.6193 43.9866C17.8681 43.4677 17.754 42.9303 17.3068 42.5137C17.0324 42.258 16.7672 42.2032 15.8042 42.2032C14.7854 42.2032 14.5948 42.2476 14.3245 42.5477ZM20.8633 42.5056C20.1944 43.1744 20.3428 44.1916 21.1703 44.6104C21.68 44.8683 22.8937 44.8562 23.5387 44.5867C24.3459 44.2494 24.5168 43.2334 23.8815 42.5477C23.6028 42.2469 23.41 42.2032 22.364 42.2032C21.375 42.2032 21.1128 42.256 20.8633 42.5056ZM27.3603 42.5791C26.8445 43.0948 26.8527 43.8636 27.3796 44.3585C27.7237 44.6818 27.9199 44.7297 28.8985 44.7297C29.8771 44.7297 30.0733 44.6818 30.4173 44.3585C30.9442 43.8636 30.9525 43.0948 30.4366 42.5791C30.1037 42.246 29.9284 42.2032 28.8985 42.2032C27.8686 42.2032 27.6932 42.246 27.3603 42.5791ZM9.06482 47.7963C8.586 48.3061 8.57574 49.1282 9.04246 49.5948C9.33799 49.8903 9.54624 49.936 10.6 49.936C11.6539 49.936 11.8621 49.8903 12.1576 49.5948C12.6244 49.1282 12.6141 48.3061 12.1353 47.7963C11.8077 47.4478 11.6552 47.4094 10.6 47.4094C9.54486 47.4094 9.39235 47.4478 9.06482 47.7963ZM16.9717 47.7539C16.3144 48.3453 16.4211 49.3881 17.1791 49.7801C17.7214 50.0605 19.1069 50.0811 19.6298 49.8167C20.4713 49.3908 20.6077 48.37 19.9099 47.7199C19.6387 47.4671 19.3701 47.4094 18.4656 47.4094C17.529 47.4094 17.2945 47.4635 16.9717 47.7539ZM24.7572 47.7853C24.0498 48.4926 24.4027 49.7052 25.3879 49.9525C26.1455 50.1427 27.4222 49.9331 27.8278 49.5521C28.3408 49.07 28.3434 48.2951 27.8335 47.7853C27.5006 47.4523 27.3253 47.4094 26.2954 47.4094C25.2654 47.4094 25.0901 47.4523 24.7572 47.7853ZM32.5666 47.7853C32.0567 48.2951 32.0593 49.07 32.5723 49.5521C32.9779 49.9331 34.2546 50.1427 35.0122 49.9525C35.9974 49.7052 36.3503 48.4926 35.6429 47.7853C35.31 47.4523 35.1347 47.4094 34.1047 47.4094C33.0748 47.4094 32.8995 47.4523 32.5666 47.7853ZM37.9984 55.4428C38.7421 55.8274 38.8657 56.8264 38.246 57.446L37.8702 57.8219H21.7016H5.53299L5.15722 57.446C4.52772 56.8166 4.67855 55.8287 5.47036 55.3956C5.68627 55.2774 10.4619 55.2267 21.671 55.2234C35.3276 55.2194 37.6263 55.2503 37.9984 55.4428ZM72.0059 58.0899C72.0124 58.7358 71.5227 67.2879 71.4535 67.7367L71.3767 68.2344H59.6001H47.8234L47.7466 67.7367C47.6774 67.2879 47.1877 58.7358 47.1942 58.0899C47.1968 57.8369 47.8907 57.8219 59.6001 57.8219C71.3094 57.8219 72.0033 57.8369 72.0059 58.0899ZM24.6875 63.0282C30.0546 64.4599 34.6342 65.6313 34.8647 65.6313C35.4977 65.6313 35.9738 64.9996 37.1672 62.5758L38.2391 60.399L38.7751 60.4834C39.0836 60.5321 39.4572 60.736 39.6555 60.9643C39.9867 61.3456 40 61.4727 40 64.2692C40 67.2944 39.8884 67.9151 39.3041 68.1393C39.1678 68.1915 31.2238 68.2323 21.6508 68.2295C3.22417 68.2244 3.97372 68.254 3.58126 67.5172C3.32631 67.0383 3.34192 61.7035 3.59979 61.1937C3.97234 60.4573 4.19422 60.4296 9.74041 60.4273L14.9294 60.425L24.6875 63.0282ZM34.6825 61.5735C34.3698 62.2051 34.0156 62.7219 33.8951 62.7219C33.6425 62.7219 25.5619 60.5791 25.4659 60.4864C25.4308 60.4527 27.6181 60.425 30.3264 60.425H35.2507L34.6825 61.5735ZM56.3481 63.2678C55.62 63.6629 55.5286 64.7082 56.1717 65.2867C56.4945 65.5772 56.729 65.6313 57.6656 65.6313C58.5701 65.6313 58.8387 65.5735 59.1099 65.3207C59.8077 64.6707 59.6713 63.6498 58.8298 63.224C58.3152 62.9637 56.8614 62.9893 56.3481 63.2678ZM62.9688 63.2263C62.1591 63.6359 62.02 64.6935 62.6933 65.3207C62.9996 65.6062 63.227 65.6313 65.4975 65.6313C67.866 65.6313 67.9813 65.617 68.2787 65.2867C68.7197 64.7969 68.798 64.4816 68.6113 63.9466C68.3415 63.1724 67.8449 63.0278 65.4647 63.0304C64.0693 63.0318 63.2216 63.0984 62.9688 63.2263Z" fill="#CE3246"/>
</svg>
