<svg width="454" height="121" viewBox="0 0 454 121" fill="none" xmlns="http://www.w3.org/2000/svg">
<path d="M5.39893 96.1749V24.1724H22.6407V54.6188H23.5811L47.1623 24.1724H67.4692L42.1813 56.3064L67.922 96.1749H47.3016L29.5373 67.8731L22.6407 76.6625V96.1749H5.39893ZM90.4668 24.1724L106.42 76.9086H107.012L122.965 24.1724H142.262L118.193 96.1749H95.2389L71.17 24.1724H90.4668Z" fill="white"/>
<path d="M190.432 60.1735C190.432 68.0956 188.922 74.8105 185.904 80.3186C182.886 85.8266 178.799 90.0103 173.643 92.8698C168.511 95.7292 162.753 97.1589 156.366 97.1589C149.957 97.1589 144.187 95.7174 139.055 92.8346C133.924 89.9516 129.848 85.7679 126.83 80.2834C123.834 74.7754 122.336 68.0721 122.336 60.1735C122.336 52.2512 123.834 45.5363 126.83 40.0282C129.848 34.5202 133.924 30.3365 139.055 27.4771C144.187 24.6176 149.957 23.1879 156.366 23.1879C162.753 23.1879 168.511 24.6176 173.643 27.4771C178.799 30.3365 182.886 34.5202 185.904 40.0282C188.922 45.5363 190.432 52.2512 190.432 60.1735ZM172.807 60.1735C172.807 55.4858 172.146 51.5247 170.821 48.2903C169.521 45.0557 167.641 42.6065 165.179 40.9424C162.74 39.2781 159.804 38.4461 156.366 38.4461C152.953 38.4461 150.016 39.2781 147.554 40.9424C145.093 42.6065 143.2 45.0557 141.876 48.2903C140.576 51.5247 139.926 55.4858 139.926 60.1735C139.926 64.861 140.576 68.8221 141.876 72.0565C143.2 75.2911 145.093 77.7403 147.554 79.4046C150.016 81.0687 152.953 81.9007 156.366 81.9007C159.804 81.9007 162.74 81.0687 165.179 79.4046C167.641 77.7403 169.521 75.2911 170.821 72.0565C172.146 68.8221 172.807 64.861 172.807 60.1735ZM200.498 96.1746V42.1729H217.044V52.0169H217.601C218.577 48.4543 220.167 45.8057 222.373 44.0713C224.578 42.3134 227.145 41.4346 230.071 41.4346C230.86 41.4346 231.673 41.4931 232.509 41.6104C233.344 41.704 234.123 41.8565 234.842 42.0673V57.0092C234.029 56.728 232.962 56.5053 231.638 56.3412C230.337 56.1771 229.177 56.0951 228.155 56.0951C226.135 56.0951 224.312 56.5522 222.686 57.4663C221.083 58.3569 219.818 59.6108 218.889 61.2281C217.984 62.8219 217.531 64.6969 217.531 66.8534V96.1746H200.498ZM258.545 96.9481C254.598 96.9481 251.011 95.9167 247.783 93.8542C244.555 91.7915 241.977 88.6977 240.051 84.5727C238.122 80.4475 237.158 75.3262 237.158 69.2088C237.158 62.857 238.157 57.6304 240.154 53.5287C242.151 49.427 244.764 46.3917 247.991 44.4229C251.242 42.454 254.737 41.4696 258.475 41.4696C261.286 41.4696 263.689 41.9618 265.686 42.9464C267.683 43.9073 269.332 45.1495 270.632 46.673C271.933 48.1965 272.919 49.7786 273.593 51.4192H273.941V24.1722H290.974V96.1746H274.116V87.4204H273.593C272.873 89.0845 271.851 90.6431 270.527 92.0963C269.204 93.5494 267.544 94.7213 265.547 95.6121C263.573 96.5027 261.239 96.9481 258.545 96.9481ZM264.467 83.5531C266.534 83.5531 268.298 82.9671 269.761 81.7952C271.224 80.5998 272.35 78.924 273.141 76.7677C273.929 74.6114 274.325 72.08 274.325 69.1737C274.325 66.2204 273.929 63.6775 273.141 61.5445C272.374 59.4117 271.247 57.7709 269.761 56.6225C268.298 55.4741 266.534 54.8999 264.467 54.8999C262.354 54.8999 260.566 55.4858 259.103 56.6577C257.64 57.8296 256.525 59.482 255.76 61.6148C255.016 63.7478 254.644 66.2674 254.644 69.1737C254.644 72.08 255.027 74.6114 255.793 76.7677C256.56 78.924 257.663 80.5998 259.103 81.7952C260.566 82.9671 262.354 83.5531 264.467 83.5531ZM326.754 97.1942C321.158 97.1942 316.328 96.0808 312.264 93.8542C308.225 91.6041 305.112 88.4048 302.929 84.2563C300.77 80.0841 299.691 75.127 299.691 69.3846C299.691 63.8063 300.781 58.9311 302.964 54.7591C305.147 50.5637 308.225 47.3057 312.196 44.9854C316.165 42.6416 320.845 41.4696 326.232 41.4696C330.04 41.4696 333.524 42.0673 336.682 43.2627C339.84 44.458 342.569 46.2276 344.867 48.5714C347.166 50.9153 348.954 53.81 350.231 57.2553C351.509 60.6774 352.147 64.6033 352.147 69.0331V73.3222H305.646V63.3376H336.298C336.276 61.5094 335.846 59.8804 335.01 58.4507C334.174 57.0209 333.025 55.9077 331.562 55.1107C330.122 54.2904 328.461 53.8803 326.581 53.8803C324.676 53.8803 322.97 54.3139 321.461 55.181C319.951 56.0248 318.755 57.185 317.872 58.6617C316.991 60.1148 316.525 61.7671 316.479 63.6188V73.7793C316.479 75.9824 316.909 77.9161 317.768 79.5802C318.627 81.221 319.846 82.4984 321.426 83.4125C323.005 84.3266 324.885 84.7835 327.068 84.7835C328.577 84.7835 329.948 84.5727 331.178 84.1508C332.41 83.7289 333.466 83.1077 334.348 82.2874C335.23 81.4671 335.892 80.4592 336.333 79.2638L351.972 79.7209C351.322 83.26 349.894 86.3423 347.689 88.9673C345.506 91.5689 342.637 93.5964 339.085 95.0495C335.532 96.4792 331.422 97.1942 326.754 97.1942ZM360.846 96.1746V42.1729H377.391V52.0169H377.948C378.924 48.4543 380.514 45.8057 382.721 44.0713C384.926 42.3134 387.492 41.4346 390.418 41.4346C391.208 41.4346 392.021 41.4931 392.856 41.6104C393.693 41.704 394.47 41.8565 395.19 42.0673V57.0092C394.378 56.728 393.31 56.5053 391.986 56.3412C390.685 56.1771 389.524 56.0951 388.502 56.0951C386.482 56.0951 384.66 56.5522 383.033 57.4663C381.432 58.3569 380.166 59.6108 379.237 61.2281C378.332 62.8219 377.878 64.6969 377.878 66.8534V96.1746H360.846ZM448.839 58.6617L433.2 59.0836C433.038 57.9585 432.596 56.9624 431.877 56.0951C431.157 55.2045 430.217 54.513 429.055 54.0208C427.918 53.5052 426.593 53.2473 425.084 53.2473C423.111 53.2473 421.427 53.6459 420.034 54.4427C418.664 55.2397 417.99 56.3179 418.014 57.6772C417.99 58.732 418.409 59.6461 419.268 60.4196C420.151 61.1929 421.717 61.8141 423.97 62.2828L434.281 64.2517C439.621 65.2829 443.592 66.9939 446.192 69.3846C448.817 71.7754 450.14 74.9395 450.163 78.8771C450.14 82.5804 449.049 85.8031 446.889 88.5454C444.753 91.2876 441.828 93.4206 438.111 94.9441C434.397 96.4441 430.147 97.1942 425.363 97.1942C417.724 97.1942 411.697 95.6121 407.286 92.4479C402.897 89.2603 400.389 84.9946 399.763 79.6506L416.586 79.2288C416.957 81.1975 417.921 82.6975 419.477 83.7289C421.032 84.7602 423.017 85.2757 425.433 85.2757C427.616 85.2757 429.392 84.8656 430.762 84.0453C432.132 83.2249 432.829 82.1351 432.853 80.7756C432.829 79.5569 432.295 78.5841 431.25 77.8576C430.204 77.1075 428.568 76.5216 426.338 76.0997L417.003 74.3067C411.639 73.3222 407.646 71.5058 405.021 68.8573C402.397 66.1854 401.097 62.7867 401.12 58.6617C401.097 55.0522 402.049 51.9701 403.976 49.4152C405.904 46.837 408.644 44.8683 412.197 43.5088C415.749 42.1494 419.942 41.4696 424.772 41.4696C432.016 41.4696 437.729 43.0049 441.909 46.0753C446.089 49.1223 448.398 53.3178 448.839 58.6617Z" fill="#FF3F4B"/>
</svg>
