<svg width="80" height="79" viewBox="0 0 80 79" fill="none" xmlns="http://www.w3.org/2000/svg">
<g clip-path="url(#clip0_3307_433)">
<path d="M13.8285 71.1394L77.2573 42.651C78.4545 42.1136 79.1988 40.9762 79.2002 39.6826C79.2002 39.6813 79.2002 39.6801 79.2002 39.679C79.2002 38.3871 78.4585 37.2499 77.2638 36.7103L13.8317 8.062C13.2175 7.78469 12.4939 7.94838 12.0588 8.46319C11.9429 8.60039 9.18714 11.8874 6.41359 17.376C3.85288 22.4436 0.800193 30.4274 0.800192 39.6838C0.800192 48.9423 3.85396 56.8818 6.41558 61.9121C9.19081 67.3614 11.9489 70.6087 12.0651 70.7444C12.5003 71.2529 13.2181 71.4137 13.8285 71.1394ZM22.8834 15.4595C22.0758 16.9187 21.3293 18.4171 20.6563 19.931C20.5678 20.1301 20.5259 20.338 20.5259 20.5429C20.5259 21.1206 20.86 21.672 21.422 21.9218C22.183 22.2602 23.0743 21.9173 23.4126 21.1562C24.0833 19.6474 24.8317 18.1558 25.643 16.7057L76.0224 39.4592C76.0918 39.4905 76.1839 39.5472 76.1839 39.679C76.1839 39.679 76.1839 39.6792 76.1839 39.6793C76.1838 39.8113 76.0913 39.8681 76.0218 39.8994L20.8059 64.6989C17.6696 59.7108 13.1618 50.6359 13.1618 39.6835C13.1618 28.7194 17.6776 19.5667 20.8188 14.5268L22.8834 15.4595ZM3.81675 39.6838C3.81675 31.0561 6.67161 23.5731 9.06647 18.8149C10.8773 15.2169 12.7073 12.5867 13.6705 11.2989L18.0462 13.2751C14.7307 18.6843 10.1454 28.2368 10.1454 39.6838C10.1454 51.1124 14.7162 60.5844 18.0286 65.9465L13.6662 67.9057C11.3215 64.8001 3.81675 53.7575 3.81675 39.6838Z" fill="#CE3246"/>
<path d="M21.8762 25.018L21.8975 24.9582C22.1737 24.1726 21.762 23.3115 20.9764 23.0343C20.1909 22.7573 19.3296 23.1695 19.0524 23.9552L19.0304 24.0184C18.9722 24.1838 18.9448 24.3524 18.9448 24.5182C18.9448 25.1405 19.3331 25.7233 19.9534 25.9412C20.7394 26.2171 21.6003 25.8039 21.8762 25.018Z" fill="#CE3246"/>
<path d="M35.4883 29.0428C35.4883 25.7163 32.782 23.0101 29.4556 23.0101C26.1291 23.0101 23.423 25.7163 23.423 29.0428C23.423 32.3693 26.1293 35.0754 29.4556 35.0754C32.7821 35.0754 35.4883 32.3691 35.4883 29.0428ZM26.4392 29.0428C26.4392 27.3795 27.7924 26.0264 29.4556 26.0264C31.1189 26.0264 32.472 27.3795 32.472 29.0428C32.472 30.706 31.1189 32.0592 29.4556 32.0592C27.7924 32.059 26.4392 30.706 26.4392 29.0428Z" fill="#CE3246"/>
<path d="M50.5698 44.8786C50.5698 41.5521 47.8635 38.8459 44.5372 38.8459C41.2107 38.8459 38.5045 41.5523 38.5045 44.8786C38.5045 48.2049 41.2109 50.9112 44.5372 50.9112C47.8635 50.9112 50.5698 48.2049 50.5698 44.8786ZM41.5209 44.8786C41.5209 43.2153 42.8741 41.8622 44.5373 41.8622C46.2006 41.8622 47.5537 43.2152 47.5537 44.8786C47.5537 46.5418 46.2006 47.895 44.5373 47.895C42.8741 47.895 41.5209 46.5418 41.5209 44.8786Z" fill="#CE3246"/>
<path d="M30.21 48.649C30.21 46.1542 28.1803 44.1245 25.6854 44.1245C23.1906 44.1245 21.1609 46.1542 21.1609 48.649C21.1609 51.1439 23.1906 53.1736 25.6854 53.1736C28.1803 53.1736 30.21 51.1439 30.21 48.649ZM24.1772 48.649C24.1772 47.8174 24.8537 47.1409 25.6853 47.1409C26.5169 47.1409 27.1934 47.8174 27.1934 48.649C27.1934 49.4807 26.5169 50.1572 25.6853 50.1572C24.8537 50.1572 24.1772 49.4805 24.1772 48.649Z" fill="#CE3246"/>
<path d="M62.6913 40.6944C63.2546 40.0805 63.2126 39.1264 62.5986 38.5637L61.6936 37.7342C61.0798 37.1713 60.1258 37.2128 59.5629 37.8269C59.2974 38.1163 59.1665 38.4815 59.1665 38.8454C59.1665 39.2535 59.3312 39.6602 59.6555 39.9576L60.5605 40.7871C61.1744 41.3498 62.1285 41.3083 62.6913 40.6944Z" fill="#CE3246"/>
<path d="M53.7302 37.3481L55.2383 34.7842C55.6605 34.0662 55.4212 33.1419 54.7032 32.7196C53.9852 32.2973 53.0609 32.5369 52.6386 33.2547L51.1305 35.8187C50.9891 36.0589 50.9219 36.3221 50.9219 36.582C50.9219 37.0988 51.1879 37.6023 51.6658 37.8832C52.3836 38.3056 53.308 38.0659 53.7302 37.3481Z" fill="#CE3246"/>
<path d="M44.3775 35.4057C45.1431 35.0778 45.4979 34.191 45.1696 33.4255L43.3598 29.2027C43.0317 28.4371 42.1449 28.0824 41.3795 28.4106C40.8075 28.6557 40.4648 29.2125 40.4648 29.7974C40.4648 29.9956 40.5042 30.1971 40.5873 30.3908L42.3971 34.6136C42.7253 35.3794 43.612 35.7339 44.3775 35.4057Z" fill="#CE3246"/>
<path d="M34.373 43.3871L36.9369 39.8429C37.425 39.1679 37.2737 38.225 36.599 37.737C35.924 37.2488 34.9812 37.4001 34.4929 38.0749L31.929 41.6191C31.7357 41.8862 31.6428 42.1953 31.6428 42.502C31.6428 42.9694 31.8594 43.4301 32.2672 43.7252C32.9417 44.2131 33.8847 44.0619 34.373 43.3871Z" fill="#CE3246"/>
<path d="M36.5843 55.9862C37.3046 55.5684 37.5501 54.6456 37.1322 53.9249L34.9454 50.1545C34.5274 49.4341 33.6045 49.1887 32.8839 49.6066C32.4015 49.8864 32.1322 50.3925 32.1322 50.9126C32.1322 51.1693 32.1979 51.4297 32.3362 51.668L34.5231 55.4384C34.9408 56.1588 35.8638 56.404 36.5843 55.9862Z" fill="#CE3246"/>
<path d="M24.3324 41.4264C24.9249 40.8411 24.9301 39.8862 24.3447 39.2937L19.971 34.8697C19.3853 34.2774 18.4304 34.272 17.8381 34.8574C17.5396 35.1525 17.3902 35.5411 17.3902 35.93C17.3902 36.3132 17.5354 36.6963 17.826 36.9903L22.1997 41.4142C22.7853 42.0066 23.7401 42.012 24.3324 41.4264Z" fill="#CE3246"/>
</g>
<defs>
<clipPath id="clip0_3307_433">
<rect width="78.4" height="78.4" fill="white" transform="translate(79.2002 0.400024) rotate(90)"/>
</clipPath>
</defs>
</svg>
