<svg width="80" height="79" viewBox="0 0 80 79" fill="none" xmlns="http://www.w3.org/2000/svg">
<g clip-path="url(#clip0_3307_480)">
<path d="M13.8283 71.1394L77.2571 42.651C78.4542 42.1136 79.1986 40.9762 79.1999 39.6826C79.1999 39.6813 79.1999 39.6801 79.1999 39.679C79.1999 38.3871 78.4582 37.2499 77.2635 36.7103L13.8315 8.062C13.2173 7.78469 12.4936 7.94838 12.0586 8.46319C11.9427 8.60039 9.1869 11.8874 6.41334 17.376C3.85264 22.4436 0.799949 30.4274 0.799948 39.6838C0.799948 48.9423 3.85371 56.8818 6.41533 61.9121C9.19056 67.3614 11.9487 70.6087 12.0649 70.7444C12.5001 71.2529 13.2179 71.4137 13.8283 71.1394ZM22.8831 15.4595C22.0756 16.9187 21.3291 18.4171 20.6561 19.931C20.5676 20.1301 20.5256 20.338 20.5256 20.5429C20.5256 21.1206 20.8597 21.672 21.4217 21.9218C22.1827 22.2602 23.0741 21.9173 23.4123 21.1562C24.083 19.6474 24.8315 18.1558 25.6427 16.7057L76.0222 39.4592C76.0915 39.4905 76.1837 39.5472 76.1837 39.679C76.1837 39.679 76.1837 39.6792 76.1837 39.6793C76.1835 39.8113 76.0911 39.8681 76.0215 39.8994L20.8057 64.6989C17.6694 59.7108 13.1616 50.6359 13.1616 39.6835C13.1616 28.7194 17.6774 19.5667 20.8186 14.5268L22.8831 15.4595ZM3.8165 39.6838C3.8165 31.0561 6.67136 23.5731 9.06623 18.8149C10.8771 15.2169 12.7071 12.5867 13.6702 11.2989L18.0459 13.2751C14.7305 18.6843 10.1451 28.2368 10.1451 39.6838C10.1451 51.1124 14.7159 60.5844 18.0283 65.9465L13.6659 67.9057C11.3213 64.8001 3.8165 53.7575 3.8165 39.6838Z" fill="#CE3246"/>
<path d="M21.8762 25.018L21.8975 24.9582C22.1737 24.1726 21.762 23.3115 20.9764 23.0343C20.1909 22.7573 19.3296 23.1695 19.0524 23.9552L19.0304 24.0184C18.9722 24.1838 18.9448 24.3524 18.9448 24.5182C18.9448 25.1405 19.3331 25.7233 19.9534 25.9412C20.7394 26.2171 21.6003 25.8039 21.8762 25.018Z" fill="#CE3246"/>
<path d="M35.488 29.0428C35.488 25.7163 32.7817 23.0101 29.4554 23.0101C26.1289 23.0101 23.4227 25.7163 23.4227 29.0428C23.4227 32.3693 26.1291 35.0754 29.4554 35.0754C32.7819 35.0754 35.488 32.3691 35.488 29.0428ZM26.439 29.0428C26.439 27.3795 27.7921 26.0264 29.4554 26.0264C31.1186 26.0264 32.4718 27.3795 32.4718 29.0428C32.4718 30.706 31.1186 32.0592 29.4554 32.0592C27.7921 32.059 26.439 30.706 26.439 29.0428Z" fill="#CE3246"/>
<path d="M50.5698 44.8786C50.5698 41.5521 47.8635 38.8459 44.5372 38.8459C41.2107 38.8459 38.5045 41.5523 38.5045 44.8786C38.5045 48.2049 41.2109 50.9112 44.5372 50.9112C47.8635 50.9112 50.5698 48.2049 50.5698 44.8786ZM41.5209 44.8786C41.5209 43.2153 42.8741 41.8622 44.5373 41.8622C46.2006 41.8622 47.5537 43.2152 47.5537 44.8786C47.5537 46.5418 46.2006 47.895 44.5373 47.895C42.8741 47.895 41.5209 46.5418 41.5209 44.8786Z" fill="#CE3246"/>
<path d="M30.2095 48.649C30.2095 46.1542 28.1798 44.1245 25.6849 44.1245C23.1901 44.1245 21.1604 46.1542 21.1604 48.649C21.1604 51.1439 23.1901 53.1736 25.6849 53.1736C28.1798 53.1736 30.2095 51.1439 30.2095 48.649ZM24.1767 48.649C24.1767 47.8174 24.8532 47.1409 25.6848 47.1409C26.5164 47.1409 27.1929 47.8174 27.1929 48.649C27.1929 49.4807 26.5164 50.1572 25.6848 50.1572C24.8532 50.1572 24.1767 49.4805 24.1767 48.649Z" fill="#CE3246"/>
<path d="M62.6913 40.6944C63.2546 40.0805 63.2126 39.1264 62.5986 38.5637L61.6936 37.7342C61.0798 37.1713 60.1258 37.2128 59.5629 37.8269C59.2974 38.1163 59.1665 38.4815 59.1665 38.8454C59.1665 39.2535 59.3312 39.6602 59.6555 39.9576L60.5605 40.7871C61.1744 41.3498 62.1285 41.3083 62.6913 40.6944Z" fill="#CE3246"/>
<path d="M53.7297 37.3481L55.2378 34.7842C55.66 34.0662 55.4207 33.1419 54.7027 32.7196C53.9847 32.2973 53.0604 32.5369 52.6381 33.2547L51.13 35.8187C50.9886 36.0589 50.9214 36.3221 50.9214 36.582C50.9214 37.0988 51.1874 37.6023 51.6653 37.8832C52.3831 38.3056 53.3076 38.0659 53.7297 37.3481Z" fill="#CE3246"/>
<path d="M44.3772 35.4057C45.1428 35.0778 45.4976 34.191 45.1693 33.4255L43.3596 29.2027C43.0314 28.4371 42.1447 28.0824 41.3792 28.4106C40.8073 28.6557 40.4646 29.2125 40.4646 29.7974C40.4646 29.9956 40.504 30.1971 40.5871 30.3908L42.3969 34.6136C42.725 35.3794 43.6118 35.7339 44.3772 35.4057Z" fill="#CE3246"/>
<path d="M34.3725 43.3871L36.9365 39.8429C37.4245 39.1679 37.2732 38.225 36.5985 37.737C35.9235 37.2488 34.9807 37.4001 34.4924 38.0749L31.9285 41.6191C31.7352 41.8862 31.6423 42.1953 31.6423 42.502C31.6423 42.9694 31.859 43.4301 32.2667 43.7252C32.9412 44.2131 33.8842 44.0619 34.3725 43.3871Z" fill="#CE3246"/>
<path d="M36.5843 55.9862C37.3046 55.5684 37.5501 54.6456 37.1322 53.9249L34.9454 50.1545C34.5274 49.4341 33.6045 49.1887 32.8839 49.6066C32.4015 49.8864 32.1322 50.3925 32.1322 50.9126C32.1322 51.1693 32.1979 51.4297 32.3362 51.668L34.5231 55.4384C34.9408 56.1588 35.8638 56.404 36.5843 55.9862Z" fill="#CE3246"/>
<path d="M24.3322 41.4264C24.9246 40.8411 24.9298 39.8862 24.3444 39.2937L19.9707 34.8697C19.385 34.2774 18.4301 34.272 17.8378 34.8574C17.5394 35.1525 17.39 35.5411 17.39 35.93C17.39 36.3132 17.5351 36.6963 17.8257 36.9903L22.1995 41.4142C22.785 42.0066 23.7399 42.012 24.3322 41.4264Z" fill="#CE3246"/>
</g>
<defs>
<clipPath id="clip0_3307_480">
<rect width="78.4" height="78.4" fill="white" transform="translate(79.2 0.400024) rotate(90)"/>
</clipPath>
</defs>
</svg>
