<svg width="76" height="63" viewBox="0 0 76 63" fill="none" xmlns="http://www.w3.org/2000/svg">
<path d="M35.517 18.5335C38.2316 18.5408 40.8362 17.4619 42.7507 15.5373C44.1762 14.1045 46.1157 13.3014 48.1368 13.3068H75.1002C75.4868 13.3068 75.8002 12.9934 75.8002 12.6068V6.16681C75.8002 5.78021 75.4868 5.46681 75.1002 5.46681H48.1368C46.1157 5.4722 44.1762 4.66909 42.7507 3.23633C40.8362 1.31178 38.2316 0.232961 35.517 0.240148H11.1669C10.7803 0.240148 10.4669 0.553549 10.4669 0.940148V2.15348C10.4669 2.54008 10.7803 2.85348 11.1669 2.85348H28.0602C28.4468 2.85348 28.7602 3.16688 28.7602 3.55348V4.76681C28.7602 5.15341 28.4468 5.46681 28.0602 5.46681H11.1669C10.7803 5.46681 10.4669 5.78021 10.4669 6.16681V7.38015C10.4669 7.76675 10.7803 8.08015 11.1669 8.08015H12.3802C12.7668 8.08015 13.0802 8.39355 13.0802 8.78015V9.99348C13.0802 10.3801 12.7668 10.6935 12.3802 10.6935H11.1669C10.7803 10.6935 10.4669 11.0069 10.4669 11.3935V12.6068C10.4669 12.9934 10.7803 13.3068 11.1669 13.3068H12.3802C12.7668 13.3068 13.0802 13.6202 13.0802 14.0068V15.2201C13.0802 15.6067 12.7668 15.9201 12.3802 15.9201H11.1669C10.7803 15.9201 10.4669 16.2335 10.4669 16.6201V17.8335C10.4669 18.2201 10.7803 18.5335 11.1669 18.5335H12.3802C12.7668 18.5335 13.0802 18.8469 13.0802 19.2335V46.5801C13.0802 46.9667 12.7668 47.2801 12.3802 47.2801H0.900195C0.513596 47.2801 0.200195 47.5935 0.200195 47.9801V48.5868C0.208852 56.5214 6.63896 62.9515 14.5735 62.9601H61.4269C69.3614 62.9515 75.7915 56.5214 75.8002 48.5868V47.9801C75.8002 47.5935 75.4868 47.2801 75.1002 47.2801H73.9518C73.4644 47.2801 73.1236 46.788 73.1697 46.3027C73.1801 46.1934 73.1858 46.0836 73.1869 45.9735C73.1805 44.4758 72.3253 43.1384 71.0254 42.4865C70.6493 42.2978 70.432 41.8598 70.5093 41.4461C70.8431 39.6605 69.8895 37.8267 68.1413 37.1151C67.669 36.9229 67.1635 36.8249 66.6535 36.8268H64.8052C64.3177 36.8268 63.9769 36.3347 64.023 35.8494C64.0334 35.7401 64.0391 35.6303 64.0402 35.5201C64.0402 33.3552 62.2852 31.6001 60.1202 31.6001H56.8339C54.4065 31.5933 52.0772 32.5583 50.3659 34.2801L48.0243 36.6218C47.893 36.7531 47.7149 36.8268 47.5293 36.8268H40.5202C38.3632 36.8185 36.6079 38.5603 36.5994 40.7172C36.5984 40.9622 36.6205 41.2062 36.6651 41.4459C36.7419 41.8597 36.5244 42.2979 36.1482 42.4866C34.8483 43.1385 33.9932 44.4758 33.9869 45.9735C33.9879 46.0836 33.9937 46.1934 34.004 46.3027C34.0501 46.788 33.7093 47.2801 33.2219 47.2801H32.0735C31.6869 47.2801 31.3735 46.9667 31.3735 46.5801V19.2335C31.3735 18.8469 31.6869 18.5335 32.0735 18.5335H35.517ZM31.3735 3.55348C31.3735 3.16688 31.6869 2.85348 32.0735 2.85348H35.517C37.5381 2.84809 39.4775 3.6512 40.903 5.08396C42.8175 7.00852 45.4222 8.0875 48.1368 8.08015H72.4869C72.8735 8.08015 73.1869 8.39355 73.1869 8.78015V9.99348C73.1869 10.3801 72.8735 10.6935 72.4869 10.6935H48.1368C45.4222 10.6861 42.8175 11.7651 40.903 13.6897C39.4775 15.1224 37.5381 15.9255 35.517 15.9201H32.0735C31.6869 15.9201 31.3735 15.6067 31.3735 15.2201V3.55348ZM26.1469 8.78015C26.1469 8.39355 26.4603 8.08015 26.8469 8.08015H28.0602C28.4468 8.08015 28.7602 8.39355 28.7602 8.78015V46.5801C28.7602 46.9667 28.4468 47.2801 28.0602 47.2801H26.8469C26.4603 47.2801 26.1469 46.9667 26.1469 46.5801V8.78015ZM20.9202 8.78015C20.9202 8.39355 21.2336 8.08015 21.6202 8.08015H22.8335C23.2201 8.08015 23.5335 8.39355 23.5335 8.78015V46.5801C23.5335 46.9667 23.2201 47.2801 22.8335 47.2801H21.6202C21.2336 47.2801 20.9202 46.9667 20.9202 46.5801V8.78015ZM15.6935 8.78015C15.6935 8.39355 16.0069 8.08015 16.3935 8.08015H17.6069C17.9935 8.08015 18.3069 8.39355 18.3069 8.78015V46.5801C18.3069 46.9667 17.9935 47.2801 17.6069 47.2801H16.3935C16.0069 47.2801 15.6935 46.9667 15.6935 46.5801V8.78015ZM69.2669 44.6668C69.9885 44.6668 70.5735 45.2519 70.5735 45.9735C70.5735 46.6951 69.9885 47.2801 69.2669 47.2801H51.6735C51.2869 47.2801 50.9735 46.9667 50.9735 46.5801V45.7487C50.9748 45.4025 51.1124 45.0706 51.3564 44.8249C51.4576 44.7237 51.5949 44.6668 51.7381 44.6668H69.2669ZM66.6535 39.4401C67.3751 39.4401 67.9602 40.0252 67.9602 40.7468C67.9602 41.4684 67.3751 42.0535 66.6535 42.0535H55.8178C55.1941 42.0535 54.8818 41.2995 55.3228 40.8585L56.3583 39.823C56.6036 39.5777 56.9365 39.4398 57.2834 39.4401H66.6535ZM45.7469 45.3005C45.7501 44.755 45.8217 44.2119 45.9598 43.6842C46.2476 42.551 46.8343 41.5159 47.6585 40.6867L51.5158 36.8268L52.2149 36.1277C53.4369 34.8982 55.1003 34.2087 56.8339 34.2135H60.1202C60.8418 34.2135 61.4269 34.7985 61.4269 35.5201C61.4269 36.2418 60.8418 36.8268 60.1202 36.8268H57.2834C56.2428 36.824 55.2445 37.2376 54.5107 37.9754L50.0497 42.4363L49.5088 42.9773C48.7711 43.7107 48.3576 44.7086 48.3602 45.7487V53.8135C48.3602 54.5351 47.7751 55.1201 47.0535 55.1201C46.3319 55.1201 45.7469 54.5351 45.7469 53.8135V45.3005ZM40.5176 39.4349C40.519 39.4349 40.5202 39.4361 40.5202 39.4375C40.5202 39.439 40.5214 39.4401 40.5228 39.4401H45.0873C45.1547 39.4401 45.203 39.5279 45.1602 39.58C44.9273 39.8713 44.7125 40.1768 44.5173 40.4946C44.4715 40.5704 44.4167 40.6384 44.3722 40.7155C44.1424 41.1171 43.9432 41.5355 43.7764 41.9672C43.7573 42.0174 43.7027 42.0482 43.649 42.0482H40.5202C39.7986 42.0482 39.2135 41.4632 39.2135 40.7416C39.2135 40.0209 39.7972 39.4363 40.5176 39.4349ZM37.9069 44.6668H42.5227C42.8653 44.6668 43.1335 44.958 43.1335 45.3005V46.5801C43.1335 46.9667 42.8201 47.2801 42.4335 47.2801H37.9069C37.1853 47.2801 36.6002 46.6951 36.6002 45.9735C36.6002 45.2519 37.1853 44.6668 37.9069 44.6668ZM37.9069 49.8935H42.4335C42.8201 49.8935 43.1335 50.2069 43.1335 50.5935V53.8135C43.1335 55.9785 44.8885 57.7335 47.0535 57.7335C49.2185 57.7335 50.9735 55.9785 50.9735 53.8135V50.5935C50.9735 50.2069 51.2869 49.8935 51.6735 49.8935H72.3313C72.7491 49.8935 73.0755 50.2582 73.0013 50.6693C71.9981 56.229 67.1503 60.3399 61.4269 60.3468H14.5735C8.85005 60.3399 4.0023 56.229 2.99911 50.6693C2.92492 50.2582 3.25128 49.8935 3.66905 49.8935H37.9069Z" fill="#CE3246"/>
</svg>
